<svg width="142" height="56" xmlns="http://www.w3.org/2000/svg" fill="none" viewBox="0 0 142 56">
  <path fill="#fff" fill-rule="evenodd" d="M20.484 50.57v1.311H3.311V50.57c1.695-.118 2.832-.475 3.412-1.072.579-.597.868-1.812.868-3.645V23.03c0-1.95-.293-3.182-.881-3.695-.588-.512-1.72-.861-3.4-1.046v-1.312h16.595c4.398 0 7.743.715 10.035 2.144 2.291 1.43 3.437 3.884 3.437 7.364 0 1.698-.449 3.291-1.347 4.78-.898 1.488-2.38 2.686-4.445 3.593-1.56.64-3.122 1.026-4.683 1.16-1.562.135-3.878.202-6.95.202v9.634c0 1.9.318 3.145.957 3.733.637.589 1.83.916 3.575.984Zm-4.532-30.012v13.87c3.072-.05 5.12-.403 6.144-1.059 1.628-1.042 2.443-3.287 2.443-6.733 0-2.354-.395-4.254-1.184-5.7-.789-1.446-2.3-2.17-4.532-2.17-1.024 0-1.759.123-2.204.367-.445.243-.667.718-.667 1.425Zm30.902 32.055c1.762 0 3.324-.328 4.684-.984 2.098-1.026 3.945-2.85 5.54-5.473l-1.184-.731c-.974 1.076-1.788 1.84-2.443 2.295-1.074.756-2.216 1.135-3.424 1.135-2.535 0-4.306-1.421-5.314-4.262-.554-1.514-.89-3.304-1.007-5.373h13.145c0-.47-.059-1.151-.176-2.042-.236-1.9-.655-3.447-1.26-4.64-.805-1.581-1.955-2.817-3.45-3.708-1.494-.891-3.088-1.337-4.784-1.337-2.971 0-5.51 1.097-7.617 3.291s-3.16 5.276-3.16 9.244c0 4.388 1.107 7.583 3.323 9.583 2.216 2.001 4.592 3.002 7.127 3.002Zm-3.274-15.31h6.925c-.033-3.042-.268-5.17-.705-6.38-.436-1.21-1.31-1.816-2.619-1.816-1.343 0-2.262.698-2.757 2.094-.495 1.395-.777 3.43-.844 6.103Zm35.209 15.31c.856 0 1.67-.152 2.443-.454 1.225-.471 2.341-1.295 3.349-2.472l-.78-1.084c-.337.336-.584.542-.744.617-.16.076-.34.114-.541.114-.235 0-.45-.13-.642-.391-.193-.26-.29-.576-.29-.946v-12.51c0-3.06-.974-5.16-2.92-6.304-1.965-1.127-4.408-1.69-7.329-1.69-2.72 0-5.01.58-6.874 1.74-1.864 1.16-2.795 2.732-2.795 4.716 0 1.11.348 1.96 1.045 2.548.696.588 1.54.883 2.53.883a3.45 3.45 0 0 0 2.254-.795c.646-.53.97-1.282.97-2.257a2.84 2.84 0 0 0-.214-1.097 3.721 3.721 0 0 0-.567-.946l-.302-.353a2.027 2.027 0 0 1-.302-.429 1.124 1.124 0 0 1-.101-.504c0-.521.298-.954.894-1.3.596-.344 1.355-.516 2.279-.516 1.645 0 2.79.366 3.437 1.097.646.731.97 1.862.97 3.392v3.758c-4.768 1.379-8.268 2.749-10.501 4.11-2.233 1.363-3.35 3.204-3.35 5.524 0 1.9.614 3.3 1.84 4.2 1.224.899 2.542 1.349 3.953 1.349a10 10 0 0 0 3.223-.555c1.796-.589 3.408-1.598 4.834-3.027.185.992.479 1.74.882 2.245.705.891 1.821 1.337 3.349 1.337ZM68.98 48.06c.513.58 1.087.87 1.725.87.84 0 1.62-.252 2.342-.756.403-.303.882-.774 1.436-1.413v-7.54c-1.377.336-2.586.866-3.627 1.589-1.762 1.227-2.644 2.79-2.644 4.69 0 1.127.256 1.98.768 2.56Zm30.589 3.821v-1.236c-1.175-.151-1.906-.42-2.191-.807-.285-.386-.428-1.16-.428-2.32v-5.851l1.133-1.261 4.885 6.936c.554.79.902 1.332 1.045 1.626.143.294.214.526.214.694 0 .32-.172.555-.516.706-.344.151-.886.244-1.624.277v1.236h12.036v-1.236a2.622 2.622 0 0 1-.73-.214c-.184-.092-.377-.282-.579-.567l-9.972-13.746 4.004-4.06c1.041-1.043 2.115-1.782 3.223-2.22.621-.235 1.461-.42 2.518-.554v-1.186h-11.054v1.186c1.108.1 1.893.235 2.354.403.462.168.693.513.693 1.034 0 .202-.084.475-.252.82-.168.345-.445.71-.831 1.097l-6.547 6.583V16.976h-9.67v1.261c.957.219 1.612.496 1.964.833.353.336.53 1.05.53 2.143v26.305c0 1.143-.19 1.896-.567 2.257-.378.362-1.02.652-1.927.87v1.236H99.57Zm20.086-.416c-.21.227-.449.61-.718 1.148h-1.233v-8.55h1.435c.504 2.471 1.444 4.216 2.82 5.233 1.377 1.017 2.787 1.526 4.231 1.526 1.326 0 2.3-.299 2.921-.895.621-.597.931-1.383.931-2.358 0-.925-.335-1.716-1.007-2.371-.369-.353-.965-.732-1.788-1.135l-3.827-1.867c-2.015-.991-3.459-2.067-4.331-3.228-.89-1.16-1.335-2.53-1.335-4.11 0-2.001.697-3.729 2.09-5.183 1.393-1.455 3.341-2.182 5.842-2.182 1.091 0 2.25.18 3.475.542 1.226.362 1.989.543 2.292.543.419 0 .717-.089.893-.265.177-.177.324-.425.441-.744h1.133v7.465h-1.309c-.487-1.749-1.284-3.153-2.392-4.212-1.108-1.06-2.401-1.589-3.878-1.589-1.142 0-1.994.32-2.556.959-.563.639-.844 1.328-.844 2.068 0 .605.252 1.21.756 1.816.487.622 1.41 1.26 2.77 1.916l2.82 1.362c1.746.84 3.022 1.656 3.828 2.447 1.343 1.345 2.014 3 2.014 4.968 0 1.917-.692 3.703-2.077 5.36-1.385 1.656-3.463 2.484-6.233 2.484a10.31 10.31 0 0 1-2.077-.215c-.697-.143-1.557-.39-2.581-.744l-.882-.303a7.016 7.016 0 0 0-.591-.201 1.382 1.382 0 0 0-.29-.025.981.981 0 0 0-.743.34ZM48.394 22.523v.74H38.026v-.74c1.136 0 1.891-.178 2.265-.534.374-.355.561-1.064.561-2.126V4.532c-1.42.038-2.51.26-3.267.668-1.392.759-2.178 2.176-2.357 4.253h-.838l.028-5.874h17.513l.028 5.874h-.838c-.275-2.096-1.06-3.513-2.358-4.253-.729-.407-1.818-.63-3.266-.668v15.331c0 1.072.187 1.783.56 2.134.375.35 1.153.526 2.337.526Zm12.13.042v.697H53.52v-.697c.53-.066.921-.21 1.172-.433.251-.223.377-.666.377-1.33V5.968c0-.578-.105-.983-.313-1.216-.208-.232-.62-.386-1.236-.462V3.58h5.625v8.192c.596-.72 1.224-1.278 1.882-1.671.658-.394 1.399-.59 2.223-.59 1.117 0 2.04.324 2.77.974.728.65 1.093 1.756 1.093 3.32v6.998c0 .654.111 1.083.334 1.287.222.204.594.363 1.115.476v.697H61.73v-.697c.52-.104.876-.246 1.065-.426.19-.18.284-.588.284-1.223v-7.054c0-.664-.066-1.162-.199-1.494-.227-.597-.677-.896-1.349-.896-.502 0-1.02.232-1.555.697-.535.465-.803.782-.803.953v7.794c0 .635.095 1.043.284 1.223.19.18.545.322 1.066.426Zm15.254 1.11c.994 0 1.875-.185 2.642-.555 1.183-.578 2.225-1.607 3.124-3.086l-.667-.412c-.55.606-1.008 1.038-1.378 1.294-.606.426-1.25.64-1.931.64-1.43 0-2.43-.802-2.997-2.404-.313-.853-.502-1.863-.568-3.03h7.414c0-.265-.034-.649-.1-1.151-.132-1.072-.37-1.944-.71-2.617a5.056 5.056 0 0 0-1.946-2.09 5.182 5.182 0 0 0-2.698-.754c-1.676 0-3.108.618-4.297 1.856-1.188 1.237-1.782 2.974-1.782 5.212 0 2.475.625 4.276 1.874 5.404 1.25 1.129 2.59 1.693 4.02 1.693Zm-1.846-8.633h3.906c-.02-1.716-.152-2.915-.398-3.598-.246-.683-.739-1.024-1.477-1.024-.758 0-1.276.393-1.556 1.18-.279.787-.438 1.934-.475 3.442Z" clip-rule="evenodd"/>
</svg>
